<svg id="center_bottom_aligned" data-name="center bottom aligned" xmlns="http://www.w3.org/2000/svg" viewBox="0 0 2494.54 1911.9"><defs><style>.cls-1{fill:#fff;}</style></defs><path class="cls-1" d="M1811.27,2546c-3.12-1.07-6.17-2.39-9.36-3.16a2965.46,2965.46,0,0,1-286.25-84.58C1379,2410.15,1246.85,2352.07,1122.08,2278c-101-59.94-195.28-128.66-278.08-212.43-123.32-124.74-210.18-271-259.09-439.57a1064.17,1064.17,0,0,1-40.73-246.8c-3.8-79.66.73-158.45,20.7-236,33-127.93,86.59-246.06,167.18-351.22,41.66-54.35,89.25-103.4,138.57-150.78,2.46-2.36,4.89-4.75,7.33-7.13a17.48,17.48,0,0,0-9.53,3.56c-29.19,21-59.21,41-87.34,63.36-90.41,71.86-169.51,155.09-242.71,244.19-60.54,73.71-108.23,155-144.84,242.88-54.47,130.81-83.26,267.28-89.5,408.66-3,67.69-1,135.19,7.27,202.53a1274.74,1274.74,0,0,0,39.46,195.6c56.89,198.79,150.59,378.81,277.18,542,2.14,2.76,3.56,6.07,5.32,9.13m2160,0c-2.81-1.72-5.5-3.67-8.43-5.14q-247.71-124.44-495.45-248.8c-22.32-11.21-44.61-22.47-67-33.6-8-4-8.25-3.79-14,3.28,4.5,2.36,8.87,4.69,13.27,7q263.31,135.68,526.6,271.39c3.18,1.63,6,3.92,9,5.91m-854.34-104.55-549.06-465-8.65,6.08,547.48,465.5ZM870.06,1562.62l-2,.37q98.44,296.82,197.3,594.85l23.51-16.56c-7.76-6.74-14.38-12.79-21.35-18.41a33.69,33.69,0,0,1-11-16.18q-78.67-230.12-157.67-460.13Q884.45,1604.59,870.06,1562.62ZM669.29,1086.25c1.15-3.68,2-6.14,2.69-8.63,6.64-23,11.95-48.09,19-71,7.62-24.86,17.51-48.71,30.86-71.21,14.59-24.6,28-49.91,41.88-74.93,1.42-2.56,2.56-5.26,3.83-7.9-2.1-2.78-3.86-5.12-6.44-8.52l50.62-85.64-1.26-.83-61.15,82.25,15,14.2c-2.72,5-5.18,9.66-7.74,14.26q-54.59,98.11-109.17,196.25c-1.68,3-3,6.23-4.79,10C651.58,1078,660.3,1082.87,669.29,1086.25ZM732,1124.6l-1.87-.18c-8.25,79.57-16.34,159.15-24.79,238.69-8.47,79.84-16.86,159.68-25.2,240.91l23.23-7.17c-1.17-3.89-2.08-7-3.06-10.13-2.93-9.19-6.27-18.28-8.67-27.6a47.25,47.25,0,0,1-1.25-15.63c2.68-30.16,5.7-60.29,8.68-90.43q4.17-42.21,8.48-84.42,5.57-54.62,11.18-109.23,4.76-46.67,9.42-93.35C729.48,1152.25,730.67,1138.42,732,1124.6Z" transform="translate(-302.73 -634.1)"/><path class="cls-1" d="M633.27,2546c-1.76-3.06-3.18-6.37-5.32-9.13-126.59-163.18-220.29-343.2-277.18-542a1274.74,1274.74,0,0,1-39.46-195.6c-8.28-67.34-10.25-134.84-7.27-202.53,6.24-141.38,35-277.85,89.5-408.66,36.61-87.91,84.3-169.17,144.84-242.88,73.2-89.1,152.3-172.33,242.71-244.19,28.13-22.35,58.15-42.34,87.34-63.36A17.48,17.48,0,0,1,878,634.1c-2.44,2.38-4.87,4.77-7.33,7.13C821.31,688.61,773.72,737.66,732.06,792c-80.59,105.16-134.22,223.29-167.18,351.22-20,77.52-24.5,156.31-20.7,236A1064.17,1064.17,0,0,0,584.91,1626c48.91,168.56,135.77,314.83,259.09,439.57,82.8,83.77,177.12,152.49,278.08,212.43,124.77,74.07,256.91,132.15,393.58,180.26a2965.46,2965.46,0,0,0,286.25,84.58c3.19.77,6.24,2.09,9.36,3.16Z" transform="translate(-302.73 -634.1)"/><path class="cls-1" d="M2757.27,2546c-3-2-5.83-4.28-9-5.91Q2485,2404.34,2221.66,2268.7c-4.4-2.27-8.77-4.6-13.27-7,9.88-4.74,15.88-2.74,18-3.28,22.35,11.13,44.64,22.39,67,33.6q247.72,124.38,495.45,248.8c2.93,1.47,5.62,3.42,8.43,5.14Z" transform="translate(-302.73 -634.1)"/><path class="cls-1" d="M1904.93,2440.45c-4.12,2.66-8.83,5.42-12.23,7.62l-547.48-465.5c3.24-2.28,10.2-3.56,13-5.57C1541.24,2131.94,1721.32,2285,1904.93,2440.45Z" transform="translate(-302.73 -634.1)"/><path class="cls-1" d="M880.06,1562.62c9.59,28,16.19,54,25.79,81.94q78.89,230,157.67,460.13a33.69,33.69,0,0,0,11,16.18c7,5.62,14.59,10.67,22.35,17.41-7.89,5.56-23.07,13.62-31.51,19.56Q966.27,1859.21,868,1563C868.69,1562.87,879.37,1562.75,880.06,1562.62Z" transform="translate(-302.73 -634.1)"/><path class="cls-1" d="M669.29,1086.25c-9-3.38-17.71-8.28-26.75-11.68,1.79-3.76,3.11-7,4.79-10q54.55-98.14,109.17-196.25c2.56-4.6,5-9.25,7.74-14.26l-15-14.2,61.15-82.25,1.26.83c-16.91,28.6-34.81,58.2-51.62,86.64,2.58,3.4,6.34,6.74,8.44,9.52-1.27,2.64-2.41,5.34-3.83,7.9-13.88,25-27.29,50.33-41.88,74.93-13.35,22.5-23.24,46.35-30.86,71.21-7,22.88-13.32,46-20,69C671.26,1080.11,670.44,1082.57,669.29,1086.25Z" transform="translate(-302.73 -634.1)"/><path class="cls-1" d="M738,1127.6c-1.28,13.82-2.47,27.65-3.85,41.46q-4.64,46.68-9.42,93.35-5.56,54.61-11.18,109.23-4.29,42.21-8.48,84.42c-3,30.14-6,60.27-8.68,90.43a47.25,47.25,0,0,0,1.25,15.63c2.4,9.32,5.74,18.41,8.67,27.6,1,3.1,1.89,6.24,3.06,10.13-7.65,2.36-20.54,1.49-29.23,4.17,8.34-81.23,16.73-161.07,25.2-240.91,8.45-79.54,16.54-159.12,24.79-238.69C730.7,1124.48,737.33,1127.54,738,1127.6Z" transform="translate(-302.73 -634.1)"/></svg>